<?xml version="1.0" encoding="UTF-8"?>
<!DOCTYPE svg PUBLIC "-//W3C//DTD SVG 1.1//EN" "http://www.w3.org/Graphics/SVG/1.1/DTD/svg11.dtd">
<!-- Creator: CorelDRAW 2017 -->
<svg xmlns="http://www.w3.org/2000/svg" xml:space="preserve" width="1006px" height="553px" version="1.1" style="shape-rendering:geometricPrecision; text-rendering:geometricPrecision; image-rendering:optimizeQuality; fill-rule:evenodd; clip-rule:evenodd"
viewBox="0 0 6689 3679"
 xmlns:xlink="http://www.w3.org/1999/xlink"
 enable-background="new 0 0 512 512">
 <defs>
  <style type="text/css">
   <![CDATA[
    .fil0 {fill:#EBECEC}
    .fil1 {fill:#B2B3B3}
   ]]>
  </style>
 </defs>
 <g id="Warstwa_x0020_1">
  <metadata id="CorelCorpID_0Corel-Layer"/>
  <g id="about-section.svg">
   <path class="fil0" d="M6433 1159c0,22 -18,39 -39,39l-396 0c-22,0 -39,-18 -39,-39 0,-22 18,-39 39,-39l396 0c22,0 39,18 39,39l0 0zm-39 392l-1206 0c-22,0 -39,18 -39,39 0,22 18,39 39,39l1206 0c22,0 39,-18 39,-39 0,-22 -18,-39 -39,-39zm0 -216l-396 0c-22,0 -39,18 -39,39 0,22 18,39 39,39l396 0c22,0 39,-18 39,-39 0,-22 -18,-39 -39,-39l0 0zm0 431l-1206 0c-22,0 -39,18 -39,39 0,22 18,39 39,39l1206 0c22,0 39,-18 39,-39 0,-22 -18,-39 -39,-39zm-22 216l-1184 0c-22,0 -39,18 -39,39 0,22 18,39 39,39l1184 0c22,0 39,-18 39,-39 0,-22 -18,-39 -39,-39zm0 215l-1184 0c-22,0 -39,18 -39,39 0,22 18,39 39,39l1184 0c22,0 39,-18 39,-39 0,-22 -18,-39 -39,-39l0 0zm-420 215l-764 0c-22,0 -39,18 -39,39 0,22 18,39 39,39l764 0c22,0 39,-18 39,-39 0,-22 -18,-39 -39,-39l0 0zm738 -1474l0 1779c0,22 -18,39 -39,39l-200 0 0 165c0,22 -18,39 -39,39l-1684 0c-22,0 -39,-18 -39,-39l0 -2187c0,-22 18,-39 39,-39l165 0 0 -214c0,-22 18,-39 39,-39l1261 0c10,0 20,4 28,12l458 457c7,7 12,17 12,28l0 0zm-458 -39l323 0 -323 -323 0 323zm140 1858l-1440 0c-22,0 -39,-18 -39,-39l0 -1943 -126 0 0 2108 1605 0 0 -126zm239 -79l0 -1701 -418 0c-22,0 -39,-18 -39,-39l0 -418 -1182 0 0 2158 1640 0zm-1455 -1655c-6,-9 -9,-19 -7,-29 2,-10 7,-20 16,-26l347 -253c14,-10 33,-10 46,0l348 253c8,6 14,15 16,26 2,10 -1,21 -7,29l-58 79c-13,17 -37,21 -55,9l0 264c0,22 -18,39 -39,39l-455 0c-22,0 -39,-18 -39,-39l0 -264c-7,5 -15,7 -23,7 -12,0 -24,-6 -32,-16l-58 -79zm416 312l0 -194 -74 0 0 194 74 0zm151 0l0 -282 -188 -137 -188 137 0 282 72 0 0 -234c0,-22 18,-39 39,-39l153 0c22,0 39,18 39,39l0 234 72 0 0 0zm-480 -326l11 15 258 -188c7,-5 15,-8 23,-8 8,0 16,3 23,8l258 188 11 -15 -292 -213 -292 213z"/>
  </g>
  <path class="fil1" d="M2394 3559l0 -720c-53,0 -72,-8 -118,-8 -42,-1 -85,0 -127,0 -174,1 -524,-43 -698,-77 -448,-90 -887,-271 -1159,-637 -398,-537 -318,-1244 -179,-1860 6,-25 57,-233 74,-258l-8 340c0,138 20,310 46,421 55,231 119,385 258,565l69 74c337,352 900,443 1384,483 118,10 365,-6 458,16l1 -727c7,-61 64,-116 131,-108 64,7 350,246 423,304l546 427c25,19 41,32 67,52 27,21 44,34 71,55 48,38 90,71 137,108l205 159c25,20 45,36 71,56 62,46 105,67 105,148 0,79 -88,131 -171,193l-611 480c-35,28 -67,51 -102,80 -206,170 -459,351 -664,522 -80,67 -208,20 -208,-89z"/>
  <path class="fil0" d="M2219 1260l-44 -27 -30 -73 12 -50c2,-8 0,-16 -6,-22l-65 -65c-6,-6 -14,-8 -22,-6l-50 12 -73 -30 -27 -43c-4,-7 -12,-11 -20,-11l-4 0 0 -97 86 62c4,3 9,4 14,4 7,0 14,-3 19,-9l78 -107c4,-5 5,-11 4,-17 -1,-6 -4,-11 -9,-15l-642 -468c-8,-6 -19,-6 -27,0l-134 98 0 -33c0,-13 -10,-23 -23,-23l-247 0c-13,0 -23,10 -23,23l0 97c0,13 10,23 23,23l14 0 0 99 -252 184c-5,4 -8,9 -9,15 -1,6 1,12 4,17l78 107c7,10 22,12 32,5l86 -62 0 607c0,13 10,23 23,23l567 0 4 9 -12 50c-2,8 1,16 6,22l65 65c6,6 14,8 22,6l50 -12 73 30 27 43c4,7 12,11 20,11l92 0c8,0 15,-4 20,-11l27 -43 73 -30 50 12c8,2 16,0 22,-6l65 -65c6,-6 8,-14 6,-22l-12 -50 30 -72 43 -27c7,-4 11,-12 11,-20l0 -92c0,-8 -4,-15 -11,-20zm-1185 -872l201 0 0 44 -11 8 -3 0 -189 -1 2 -50zm37 97l90 0 -90 66 0 -66zm-202 376l-51 -70 610 -445 610 445 -51 70 -546 -398c-4,-3 -9,-4 -14,-4 -5,0 -10,1 -14,4l-546 398zm140 -45l419 -306 419 306 0 130 -42 0c-8,0 -15,4 -20,11l-27 43 -72 30 -50 -12c-8,-2 -16,1 -22,6l-11 11 0 -52c0,-13 -10,-23 -23,-23l-307 0c-13,0 -23,10 -23,23l0 450 -243 0 0 -618zm289 618l0 -427 261 0 0 75 -8 8c-6,6 -8,14 -6,22l12 49 -30 72 -43 27c-7,4 -11,12 -11,20l0 91c0,8 4,15 11,20l43 27 7 17 -236 0zm887 -76l-39 24c-4,3 -7,6 -9,11l-36 86c-2,4 -2,9 -1,14l11 44 -47 47 -44 -11c-5,-1 -10,-1 -14,1l-86 36c-4,2 -8,5 -11,9l-24 39 -66 0 -24 -39c-3,-4 -6,-7 -11,-9l-86 -36c-5,-2 -9,-2 -14,-1l-44 11 -47 -47 11 -44c1,-5 1,-10 -1,-14l-36 -86c-2,-5 -5,-8 -9,-11l-39 -24 0 -66 39 -24c4,-3 7,-6 9,-11l36 -86c2,-5 2,-9 1,-14l-11 -44 47 -47 44 11c5,1 10,1 14,-1l86 -36c5,-2 8,-5 11,-9l24 -39 66 0 24 39c3,4 6,7 11,9l86 36c5,2 9,2 14,1l44 -11 47 47 -11 44c-1,5 -1,10 1,14l36 86c2,5 5,8 9,11l39 24 0 66 0 0zm-333 -244c-117,0 -212,95 -212,211 0,117 95,211 212,211 117,0 212,-95 212,-211 0,-117 -95,-211 -212,-211zm0 377c-91,0 -166,-74 -166,-166 0,-91 74,-165 166,-165 91,0 166,74 166,165 0,91 -74,166 -166,166z"/>
 </g>
</svg>
