<?xml version="1.0" encoding="UTF-8"?>
<!DOCTYPE svg PUBLIC "-//W3C//DTD SVG 1.1//EN" "http://www.w3.org/Graphics/SVG/1.1/DTD/svg11.dtd">
<!-- Creator: CorelDRAW 2017 -->
<svg xmlns="http://www.w3.org/2000/svg" xml:space="preserve" width="624px" height="553px" version="1.1" style="shape-rendering:geometricPrecision; text-rendering:geometricPrecision; image-rendering:optimizeQuality; fill-rule:evenodd; clip-rule:evenodd"
viewBox="0 0 2574.3 2281.9"
 xmlns:xlink="http://www.w3.org/1999/xlink">
 <defs>
  <style type="text/css">
   <![CDATA[
    .fil0 {fill:#B2B3B3}
   ]]>
  </style>
 </defs>
 <g id="Warstwa_x0020_1">
  <metadata id="CorelCorpID_0Corel-Layer"/>
  <path class="fil0" d="M1485.2 2207.7l0 -446.5c-32.9,0 -44.8,-4.7 -73.4,-5.1 -26,-0.3 -52.7,0.1 -78.7,0.3 -107.7,0.5 -325.1,-26.4 -432.9,-47.9 -278.1,-55.6 -550.5,-168.4 -718.6,-395 -246.9,-332.9 -197.4,-771.9 -111.3,-1153.6 3.5,-15.2 35.5,-144.6 46.2,-159.9l-5 211c0,85.8 12.1,192.4 28.4,261 34.2,143.3 73.6,238.9 160.1,350.2l42.6 45.7c209.2,218.4 558.5,274.9 858.3,299.5 73.2,6 226.5,-3.5 284.3,10l0.4 -450.9c4.4,-37.8 39.7,-71.6 81.4,-67.2 39.7,4.2 216.9,152.5 262.3,188.8l338.5 264.9c15.4,11.4 25.7,19.9 41.4,32.2 16.5,13 27.5,21.3 44.2,34.3 30,23.4 55.8,44.1 84.8,67.3l127.1 98.6c15.4,12.6 27.6,22.5 43.8,34.6 38.6,28.6 65.2,41.8 65.2,91.8 0,48.7 -54.7,81.5 -105.8,119.9l-379.2 297.7c-21.7,17.3 -41.7,31.8 -63.3,49.6 -128.1,105.2 -284.5,217.7 -412,323.9 -49.5,41.2 -128.8,12.1 -128.8,-55.2z"/>
 </g>
</svg>
