<?xml version="1.0" encoding="UTF-8"?>
<!DOCTYPE svg PUBLIC "-//W3C//DTD SVG 1.1//EN" "http://www.w3.org/Graphics/SVG/1.1/DTD/svg11.dtd">
<!-- Creator: CorelDRAW 2017 -->
<svg xmlns="http://www.w3.org/2000/svg" xml:space="preserve" width="275px" height="280px" version="1.1" style="shape-rendering:geometricPrecision; text-rendering:geometricPrecision; image-rendering:optimizeQuality; fill-rule:evenodd; clip-rule:evenodd"
viewBox="0 0 949.1 965.3"
 xmlns:xlink="http://www.w3.org/1999/xlink"
 enable-background="new 0 0 512 512">
 <defs>
  <style type="text/css">
   <![CDATA[
    .fil0 {fill:none}
    .fil1 {fill:#EBECEC}
    .fil2 {fill:#EBECEC;fill-rule:nonzero}
   ]]>
  </style>
 </defs>
 <g id="Warstwa_x0020_1">
  <metadata id="CorelCorpID_0Corel-Layer"/>
  <rect class="fil0" width="949.1" height="965.3"/>
  <g id="about-section.svg">
   <path class="fil1" d="M673.3 346.6c0,5.8 -4.7,10.5 -10.5,10.5l-105.6 0c-5.8,0 -10.5,-4.7 -10.5,-10.5 0,-5.8 4.7,-10.5 10.5,-10.5l105.6 0c5.8,0 10.5,4.7 10.5,10.5l0 0zm-10.5 104.5l-321.9 0c-5.8,0 -10.5,4.7 -10.5,10.5 0,5.9 4.7,10.6 10.5,10.6l321.9 0c5.8,0 10.5,-4.7 10.5,-10.6 0,-5.8 -4.7,-10.5 -10.5,-10.5zm0 -57.5l-105.6 0c-5.8,0 -10.5,4.7 -10.5,10.5 0,5.8 4.7,10.5 10.5,10.5l105.6 0c5.8,0 10.5,-4.7 10.5,-10.5 0,-5.8 -4.7,-10.5 -10.5,-10.5l0 0zm0 115l-321.9 0c-5.8,0 -10.5,4.7 -10.5,10.5 0,5.8 4.7,10.6 10.5,10.6l321.9 0c5.8,0 10.5,-4.8 10.5,-10.6 0,-5.8 -4.7,-10.5 -10.5,-10.5zm-5.9 57.6l-316 0c-5.8,0 -10.5,4.7 -10.5,10.5 0,5.8 4.7,10.5 10.5,10.5l316 0c5.8,0 10.5,-4.7 10.5,-10.5 0,-5.8 -4.7,-10.5 -10.5,-10.5zm0 57.5l-316 0c-5.8,0 -10.5,4.7 -10.5,10.5 0,5.8 4.7,10.5 10.5,10.5l316 0c5.8,0 10.5,-4.7 10.5,-10.5 0,-5.8 -4.7,-10.5 -10.5,-10.5l0 0zm-112.1 57.5l-203.9 0c-5.8,0 -10.5,4.7 -10.5,10.5 0,5.8 4.7,10.5 10.5,10.5l203.9 0c5.8,0 10.5,-4.7 10.5,-10.5 0,-5.8 -4.7,-10.5 -10.5,-10.5l0 0zm196.9 -393.6l0 475c0,5.8 -4.7,10.5 -10.5,10.5l-53.3 0 0 44.1c0,5.8 -4.7,10.5 -10.5,10.5l-449.5 0c-5.8,0 -10.5,-4.7 -10.5,-10.5l0 -583.9c0,-5.8 4.7,-10.5 10.5,-10.5l44.1 0 0 -57.2c0,-5.8 4.7,-10.5 10.5,-10.5l336.6 0c2.7,0 5.4,1.1 7.4,3.1l122.1 122c2,2 3.1,4.6 3.1,7.4l0 0zm-122.1 -10.5l86.2 0 -86.2 -86.1 0 86.1zm37.3 496l-384.4 0c-5.8,0 -10.5,-4.7 -10.5,-10.5l0 -518.8 -33.6 0 0 562.9 428.5 0 0 -33.6zm63.8 -21l0 -454 -111.6 0c-5.8,0 -10.5,-4.7 -10.5,-10.5l0 -111.5 -315.6 0 0 576 437.7 0z"/>
  </g>
  <path class="fil2" d="M470 240.6l-24.7 14.1c-1.3,-3.7 -3.6,-6.6 -7,-8.7 -3.3,-2.2 -7,-3.3 -11.1,-3.3 -3.4,0 -6.3,1 -8.9,2.8 -2.6,1.8 -3.8,4.4 -3.8,7.6 0,3.6 2.1,6.7 6.3,9.5 4.1,2.7 9.2,5.2 15.3,7.5 6,2.3 12,4.8 18,7.6 6,2.7 11.1,6.6 15.3,11.5 4.2,5 6.3,10.8 6.3,17.3 0,5.2 -1.5,10.2 -4.6,14.9 -3.1,4.7 -7,8.3 -11.9,10.6 7.2,5.8 10.8,13.6 10.8,23.4 0,8.1 -2.6,15 -7.8,20.6 -5.3,5.6 -11.4,9.6 -18.4,11.8 -7,2.3 -14.3,3.5 -22.1,3.5 -22.7,0 -38,-8.3 -45.7,-24.7l25.1 -12.4c1.1,4.4 3.7,7.8 7.9,10.1 4.2,2.3 8.7,3.4 13.5,3.4 3.9,0 7.5,-0.7 10.8,-2.3 3.3,-1.6 4.9,-4.2 4.9,-7.9 0,-2.8 -1.5,-5.4 -4.4,-7.7 -2.9,-2.3 -6.6,-4.2 -10.9,-5.8 -4.3,-1.6 -9,-3.5 -14.2,-5.9 -5.2,-2.3 -9.9,-4.8 -14.2,-7.4 -4.4,-2.5 -8,-6.1 -10.9,-10.7 -3,-4.7 -4.4,-10 -4.4,-15.8 0,-12.3 5.6,-22 17,-29.1 -8.2,-5.5 -12.3,-13 -12.3,-22.5 0,-7.2 2.2,-13.5 6.5,-18.7 4.4,-5.2 9.7,-9 15.9,-11.3 6.2,-2.3 12.8,-3.4 19.8,-3.4 9.5,0 18.3,1.7 26.3,5 8.1,3.3 13.9,8.8 17.6,16.4zm-48.1 74.2l20 9.2c4.5,-2.6 6.7,-6.6 6.7,-12 0,-5.7 -4.2,-10.5 -12.7,-14.1l-22.8 -10.8c-4.6,2.6 -6.9,6.5 -6.9,11.6 0,2.2 0.4,4.1 1.2,5.9 0.8,1.7 2.2,3.2 4.2,4.6 2.1,1.3 3.6,2.3 4.5,2.8 1,0.5 3,1.4 5.8,2.8z"/>
 </g>
</svg>
