<?xml version="1.0" encoding="UTF-8"?>
<!DOCTYPE svg PUBLIC "-//W3C//DTD SVG 1.1//EN" "http://www.w3.org/Graphics/SVG/1.1/DTD/svg11.dtd">
<!-- Creator: CorelDRAW 2017 -->
<svg xmlns="http://www.w3.org/2000/svg" xml:space="preserve" width="275px" height="280px" version="1.1" style="shape-rendering:geometricPrecision; text-rendering:geometricPrecision; image-rendering:optimizeQuality; fill-rule:evenodd; clip-rule:evenodd"
viewBox="0 0 500.5 509"
 xmlns:xlink="http://www.w3.org/1999/xlink">
 <defs>
  <style type="text/css">
   <![CDATA[
    .fil0 {fill:none}
    .fil1 {fill:#EBECEC}
   ]]>
  </style>
 </defs>
 <g id="Warstwa_x0020_1">
  <metadata id="CorelCorpID_0Corel-Layer"/>
  <rect class="fil0" width="500.5" height="509"/>
  <path class="fil1" d="M285.2 239.1c4,45.8 -23,87.8 -56.1,99l66 0 0 -99 -9.9 0zm-208.5 17l-9.8 0 0 82 65.9 0c-33.1,-11.2 -60.1,-36.2 -56.1,-82l0 0zm-7.4 95.2c-3.1,0 -5.6,2.2 -5.6,4.8l0 34.5c0,2.7 2.5,4.9 5.6,4.9l29.4 0 0 -0.2c0,-20.4 16.5,-37 36.9,-37 20.4,0 36.9,16.6 36.9,37l0 0.2 144.5 0 0 -0.2c0,-20.4 16.6,-37 37,-37 20.4,0 36.9,16.6 36.9,37l0 0.2 38.3 0c3.1,0 5.6,-2.2 5.6,-4.9l0 -22.9c-1.9,0.6 -3.8,0.9 -5.9,0.9l-34.6 0 -14.5 -17.3 -310.5 0 0 0zm66.3 13.5c-16.8,0 -30.5,13.7 -30.5,30.5 0,16.8 13.7,30.4 30.5,30.4 16.8,0 30.5,-13.6 30.5,-30.4 0,-16.8 -13.7,-30.5 -30.5,-30.5l0 0zm0 18.5c6.6,0 12,5.4 12,12 0,6.6 -5.4,12 -12,12 -6.6,0 -12,-5.4 -12,-12 0,-6.6 5.4,-12 12,-12l0 0zm218.4 0c-6.6,0 -12,5.4 -12,12 0,6.6 5.4,12 12,12 6.6,0 12,-5.4 12,-12 0,-6.6 -5.4,-12 -12,-12l0 0zm0 -18.5c16.8,0 30.4,13.7 30.4,30.5 0,16.8 -13.6,30.4 -30.4,30.4 -16.8,0 -30.5,-13.6 -30.5,-30.4 0,-16.8 13.7,-30.5 30.5,-30.5l0 0zm2.5 -95.2c-2.2,0 -4,1.8 -4,4l0 28.9c0,2.2 1.8,4 4,4l37.1 0.3c2.2,0 4,-1.8 4,-4l0.2 -29.2c0,-2.2 -1.8,-4 -4,-4l-37.3 0 0 0zm54.1 0.2c-2.2,0.4 -3.3,2.3 -3.4,4.5l-1 28.9c-0.1,2.2 2.4,3.4 4.6,3.4l13.1 0 -8.9 -37.7 -4.4 0.9 0 0zm27.7 55.3l0 22.6c0,5.1 -4.2,9.3 -9.4,9.3l-29.2 0 -12.5 -14.7c-1.5,-1.9 -4.1,-2.7 -6.5,-2.7l-72.4 0 0 -106.1c32.7,0 51,0 83.6,0 20.3,1.9 25.9,14.8 32,32l14.4 59.6 0 0zm-376.2 -88.6l13.6 -51.9c48.9,0.5 112.1,-7.2 155.6,12.2 19.7,8.8 34.9,19.3 46.2,30.6 2.6,49.9 -12.1,91 -63.6,110.3 -49.1,-1.1 -64.6,-16.4 -99.7,-47.2l-52.1 -54 0 0z"/>
 </g>
</svg>
