<?xml version="1.0" encoding="UTF-8"?>
<!DOCTYPE svg PUBLIC "-//W3C//DTD SVG 1.1//EN" "http://www.w3.org/Graphics/SVG/1.1/DTD/svg11.dtd">
<!-- Creator: CorelDRAW 2017 -->
<svg xmlns="http://www.w3.org/2000/svg" xml:space="preserve" width="275px" height="280px" version="1.1" style="shape-rendering:geometricPrecision; text-rendering:geometricPrecision; image-rendering:optimizeQuality; fill-rule:evenodd; clip-rule:evenodd"
viewBox="0 0 340.6 346.4"
 xmlns:xlink="http://www.w3.org/1999/xlink"
 enable-background="new 0 0 512 512">
 <defs>
  <style type="text/css">
   <![CDATA[
    .fil1 {fill:none}
    .fil0 {fill:#EBECEC}
   ]]>
  </style>
 </defs>
 <g id="Warstwa_x0020_1">
  <metadata id="CorelCorpID_0Corel-Layer"/>
  <g id="location.svg">
   <path class="fil0" d="M237.1 253c-13.2,-4.6 -30.7,-7.7 -49.9,-8.9 4.5,-9.3 9.2,-18.1 13.8,-26.1 36.5,-12.9 61,-47.4 61,-86.2 0,-50.5 -41.2,-91.6 -91.7,-91.6 -50.6,0 -91.7,41.1 -91.7,91.6 0,38.8 24.5,73.3 61,86.2 4.5,8 9.3,16.8 13.8,26.2 -19.2,1.1 -36.7,4.2 -49.9,8.8 -20.6,7.2 -24.9,15.9 -24.9,21.9 0,9.4 9.9,17.4 28.6,23.2 16.9,5.2 39.3,8.1 63.1,8.1 23.8,0 46.2,-2.9 63.1,-8.1 18.7,-5.8 28.6,-13.8 28.6,-23.2 0,-6 -4.4,-14.7 -24.9,-21.9l0 0zm-93.4 -42.3c-33.9,-11.4 -56.8,-43.1 -56.8,-78.9 0,-45.9 37.4,-83.3 83.4,-83.3 46,0 83.4,37.4 83.4,83.3 0,35.8 -22.9,67.5 -56.8,78.9 -1,0.3 -1.8,1 -2.3,1.9 -8.4,14.5 -17.6,31.6 -24.3,50.8 -6.7,-19.2 -15.9,-36.3 -24.3,-50.8 -0.5,-0.9 -1.3,-1.6 -2.3,-1.9l0 0zm26.6 87.2c-51.7,0 -83.4,-13.4 -83.4,-23 0,-8.2 24.4,-20.5 70.1,-22.6 3.1,7.2 6,14.8 8.3,22.6 0.6,2.5 2.6,4.2 5,4.2 2.4,0 4.4,-1.7 5,-4.2 2.3,-7.8 5.2,-15.4 8.3,-22.6 45.7,2.1 70.1,14.4 70.1,22.6 -0.1,9.6 -31.8,23 -83.4,23zm60.5 -166.1c0,-33.4 -27.1,-60.5 -60.5,-60.5 -33.4,0 -60.5,27.1 -60.5,60.5 0,33.3 27.1,60.4 60.5,60.4 33.4,0 60.5,-27.1 60.5,-60.4zm-60.5 52.1c-28.8,0 -52.2,-23.4 -52.2,-52.1 0,-28.8 23.4,-52.2 52.2,-52.2 28.8,0 52.2,23.4 52.2,52.2 0,28.7 -23.4,52.1 -52.2,52.1zm42.7 -60c-0.1,-1.1 -0.7,-2.1 -1.6,-2.7l-38.7 -28.2c-1.4,-1.1 -3.4,-1.1 -4.9,0l-38.6 28.2c-0.9,0.6 -1.5,1.6 -1.7,2.7 -0.1,1.1 0.1,2.2 0.8,3.1l6.2 8.5c1.2,1.6 3.3,2.1 5,1.4l0 30.3c0,2.3 1.9,4.1 4.2,4.1l53.2 0c2.3,0 4.2,-1.8 4.2,-4.1l0 -30.3c0.5,0.2 1,0.3 1.6,0.3 1.3,0 2.5,-0.6 3.4,-1.7l6.2 -8.5c0.6,-0.9 0.9,-2 0.7,-3.1l0 0zm-47.8 39.1l0 -20.2 10.2 0 0 20.2 -10.2 0zm18.5 0l0 -24.3c0,-2.3 -1.9,-4.2 -4.2,-4.2l-18.4 0c-2.3,0 -4.2,1.9 -4.2,4.2l0 24.3 -9.1 0 0 -32 22.5 -16.4 22.5 16.4 0 32 -9.1 0zm18.1 -35.7l-29.1 -21.2c-0.7,-0.6 -1.6,-0.8 -2.4,-0.8 -0.9,0 -1.7,0.2 -2.5,0.8l-29 21.2 -1.3 -1.9 32.8 -23.9 32.8 23.9 -1.3 1.9z"/>
  </g>
  <rect class="fil1" width="340.6" height="346.4"/>
 </g>
</svg>
