<?xml version="1.0" encoding="UTF-8"?>
<!DOCTYPE svg PUBLIC "-//W3C//DTD SVG 1.1//EN" "http://www.w3.org/Graphics/SVG/1.1/DTD/svg11.dtd">
<!-- Creator: CorelDRAW 2017 -->
<svg xmlns="http://www.w3.org/2000/svg" xml:space="preserve" width="262px" height="210px" version="1.1" style="shape-rendering:geometricPrecision; text-rendering:geometricPrecision; image-rendering:optimizeQuality; fill-rule:evenodd; clip-rule:evenodd"
viewBox="0 0 1127.9 903.9"
 xmlns:xlink="http://www.w3.org/1999/xlink">
 <defs>
  <style type="text/css">
   <![CDATA[
    .fil1 {fill:#9B9B9B}
    .fil0 {fill:#9B9B9B;fill-rule:nonzero}
   ]]>
  </style>
 </defs>
 <g id="Warstwa_x0020_1">
  <metadata id="CorelCorpID_0Corel-Layer"/>
  <path class="fil0" d="M435.3 288.9c0,8.4 -5.5,19.9 -16.3,34.4 -12.7,17.1 -20,28.3 -22.1,33.6 -21.1,-7.1 -41.3,-10.7 -60.4,-10.7 -12.2,0 -24.8,0.8 -37.8,2.2 -15.6,-30.2 -23.5,-51.2 -23.5,-63 0,-6.5 5.5,-10.9 16.5,-13.2 9.5,-2 19.3,-3 29.3,-3l-4 37.9 5 1 14 -44.9c6.8,-1.9 20.2,-2.9 40,-2.9 11.6,0 23.3,2.1 35.5,6.4 15.9,5.7 23.8,13.1 23.8,22.2zm23 249.4c0,23.2 -3.8,43.2 -11.5,60.2 -12.4,27.2 -50.3,40.7 -113.8,40.7 -51.3,0 -88.1,-11.8 -110,-35.4 -9.5,-10.2 -14.3,-27.8 -14.3,-53 0,-37.5 7,-73.3 21,-107.7 16.4,-40.4 39,-67.9 68,-82.4 13.1,-1.5 25.7,-2.2 37.9,-2.2 19.1,0 39.6,3.6 61.3,11 18.9,17.6 34,43.7 45.7,78.1 10.5,31.3 15.7,61.6 15.7,90.7zm-92.1 -85.7c-4,-18.6 -13.8,-29.5 -29.4,-32.8l1.3 -10.3 -10.7 -1.4 -1.3 10.7c-11.3,0.3 -20.6,3.7 -27.9,10 -7.5,6.8 -11.2,15.8 -11.2,26.8 0,14 9.9,26.5 29.8,37.4l-6.6 54.7c-12.3,-3.2 -19.4,-12.9 -21.2,-29.2l-19.4 3.8c3.5,24.4 16.3,38.6 38.3,42.8l-2 16.9 10.7 1.5 2.3 -17.4c13.2,0 24.2,-3.9 33,-11.8 8.9,-8 13.3,-18.5 13.3,-31.7 0,-16.1 -11.8,-31 -35.6,-44.6l5 -40.8c7.9,2.3 12.6,8.6 14.3,18.9l17.3 -3.5zm-42.4 -16.4l-4.3 35.5c-8.1,-5.4 -12.1,-11.1 -12.1,-17.1 0,-11.2 5.5,-17.4 16.4,-18.4zm21.5 87.3c0,15.2 -8.1,23.5 -24.4,25.2l6.2 -50c12.1,7.3 18.2,15.6 18.2,24.8z"/>
  <path class="fil1" d="M1032.1 0l-503.4 0c-52.9,0 -95.8,42.9 -95.8,95.7l0 62.1 -337.1 0c-52.8,0 -95.8,42.9 -95.8,95.7l0 400.6c0,52.8 43,95.7 95.8,95.7l55.9 0 0 136.5c0,6.8 3.9,13 10,15.9 2.5,1.2 5.1,1.7 7.7,1.7 3.9,0 7.8,-1.3 11,-3.9l187.2 -150.2 231.6 0c52.8,0 95.8,-42.9 95.8,-95.7l0 -62.1 65.3 0 187.2 150.2c3.2,2.6 7.1,3.9 11,3.9 2.6,0 5.2,-0.6 7.6,-1.8 6.1,-2.9 10,-9.1 10,-15.8l0 -136.5 56 0c52.9,0 95.8,-43 95.8,-95.7l0 -400.6c0,-52.8 -43,-95.7 -95.8,-95.7l0 0zm-372.4 654.1c0,33.4 -27.1,60.5 -60.5,60.5l-237.8 0c-4,0 -7.9,1.4 -11,3.9l-163.4 131.1 0 -117.4c0,-9.7 -7.9,-17.6 -17.6,-17.6l-73.6 0c-33.4,0 -60.6,-27.1 -60.6,-60.5l0 -400.6c0,-33.3 27.2,-60.5 60.6,-60.5l503.4 0c33.4,0 60.5,27.2 60.5,60.5l0 400.6zm433 -157.8c0,33.3 -27.2,60.4 -60.6,60.4l-73.6 0c-9.7,0 -17.6,7.9 -17.6,17.7l0 117.3 -163.4 -131.1c-3.1,-2.5 -7,-3.9 -11,-3.9l-71.5 0 0 -155.3 250.5 0c9.7,0 17.6,-7.9 17.6,-17.6 0,-9.8 -7.9,-17.7 -17.6,-17.7l-250.5 0 0 -52.5 250.5 0c9.7,0 17.6,-7.9 17.6,-17.7 0,-9.7 -7.9,-17.6 -17.6,-17.6l-250.5 0 0 -24.8c0,-52.8 -43,-95.7 -95.8,-95.7l-131.1 0 0 -62.1c0,-33.4 27.2,-60.5 60.6,-60.5l503.4 0c33.4,0 60.6,27.1 60.6,60.5l0 400.6 0 0zm-129.6 -288.1c0,9.7 -7.9,17.6 -17.6,17.6l-153.5 0c-9.7,0 -17.6,-7.9 -17.6,-17.6 0,-9.8 7.9,-17.7 17.6,-17.7l153.5 0c9.7,0 17.6,7.9 17.6,17.7l0 0z"/>
 </g>
</svg>
