<?xml version="1.0" encoding="UTF-8"?>
<!DOCTYPE svg PUBLIC "-//W3C//DTD SVG 1.1//EN" "http://www.w3.org/Graphics/SVG/1.1/DTD/svg11.dtd">
<!-- Creator: CorelDRAW 2017 -->
<svg xmlns="http://www.w3.org/2000/svg" xml:space="preserve" width="275px" height="280px" version="1.1" style="shape-rendering:geometricPrecision; text-rendering:geometricPrecision; image-rendering:optimizeQuality; fill-rule:evenodd; clip-rule:evenodd"
viewBox="0 0 340.6 346.4"
 xmlns:xlink="http://www.w3.org/1999/xlink">
 <defs>
  <style type="text/css">
   <![CDATA[
    .fil2 {fill:none}
    .fil0 {fill:#EBECEC}
    .fil1 {fill:#EBECEC;fill-rule:nonzero}
   ]]>
  </style>
 </defs>
 <g id="Warstwa_x0020_1">
  <metadata id="CorelCorpID_0Corel-Layer"/>
  <g id="_2255032388512">
   <path class="fil0" d="M286 213.4l-31.6 -67.1c-0.8,-1.8 -3,-2.5 -4.8,-1.7l-22.9 10.8c-0.8,0.4 -1.5,1.1 -1.8,2 -0.3,0.9 -0.3,1.9 0.1,2.8l1.1 2.3c-4.2,1.5 -8.6,2.7 -13,3.1 -4.8,0.5 -11.2,-0.3 -18,-1.2 -12.3,-1.6 -25.1,-3.3 -33.6,1.7l-4.7 2.8c-7.9,-5.6 -15.3,-4.8 -23.1,-3.8 -5,0.6 -10.3,1.2 -16.5,0.3 -1.2,-0.2 -2.4,-0.4 -3.7,-0.7l2.1 -4.5c0.4,-0.9 0.5,-1.9 0.1,-2.8 -0.3,-0.9 -1,-1.6 -1.8,-2l-22.9 -10.8c-1.8,-0.8 -4,-0.1 -4.8,1.7l-31.6 67.1c-0.4,0.8 -0.5,1.8 -0.1,2.7 0.3,0.9 1,1.7 1.8,2.1l22.9 10.7c0.5,0.3 1,0.4 1.6,0.4 1.3,0 2.6,-0.8 3.2,-2.1l1.6 -3.4 6.1 4.3c1.8,2 2.8,5.6 4,9.3 1,3.5 2.1,7 4,10.1l-2.1 3.6c-1.7,2.9 -2.2,6.4 -1.3,9.8 0.8,3.3 2.9,6.1 5.9,7.8 2.1,1.2 4.3,1.8 6.5,1.8 1.2,0 2.4,-0.2 3.6,-0.5 0,0.1 0,0.2 0,0.2 0.9,3.4 3,6.2 6,7.9 2,1.2 4.3,1.8 6.5,1.8 1.2,0 2.4,-0.2 3.5,-0.5 0,0.1 0.1,0.2 0.1,0.2 0.9,3.4 3,6.2 5.9,7.9 2.1,1.2 4.3,1.8 6.6,1.8 2.8,0 5.6,-1 7.9,-2.7 1.1,2 2.7,3.7 4.8,4.9 2,1.2 4.3,1.7 6.5,1.7 3,0 5.9,-1 8.3,-2.9l10.6 6.2c2.2,1.4 4.7,2 7.1,2 4.8,0 9.4,-2.5 12.1,-6.9 1.2,-2.1 1.9,-4.6 1.9,-7.1 1.4,0.5 2.8,0.7 4.2,0.7 4.7,0 9.4,-2.5 12,-6.9 1.7,-2.9 2.3,-6.2 1.7,-9.5 1,-0.1 1.9,-0.2 2.8,-0.4 3.6,-1 6.7,-3.2 8.5,-6.4 1.9,-3.1 2.4,-6.7 1.7,-10.2 0.6,-0.1 1.2,-0.2 1.9,-0.3 3.6,-1 6.7,-3.2 8.6,-6.4 1.9,-3.2 2.4,-7 1.5,-10.6 -0.2,-0.8 -0.5,-1.6 -0.9,-2.4 5.4,-1.5 9.9,-3.6 13.8,-6.3l0.7 1.4c0.6,1.3 1.9,2.1 3.2,2.1 0.6,0 1.1,-0.1 1.6,-0.4l22.9 -10.7c0.8,-0.4 1.5,-1.2 1.8,-2.1 0.4,-0.9 0.3,-1.9 -0.1,-2.7l0 0zm-207 7.4l-16.3 -7.6 28.5 -60.5 16.3 7.7 -26.5 56.3c0,0 -0.1,0.1 -0.1,0.2l-1.9 3.9zm26.9 41.7c-1.3,-0.8 -2.2,-2 -2.6,-3.5 -0.4,-1.5 -0.2,-3 0.6,-4.3l3.2 -5.5c0,0 0,-0.1 0.1,-0.1l6 -10.4 0 0c1.1,-1.8 3,-2.8 5,-2.8 0.9,0 1.9,0.3 2.8,0.8 1.3,0.8 2.2,2 2.6,3.5 0.4,1.4 0.2,3 -0.6,4.2l-9.3 16c-1.6,2.8 -5.1,3.7 -7.8,2.1l0 0zm16.1 9.4c-1.3,-0.8 -2.3,-2 -2.7,-3.5 -0.3,-1.5 -0.1,-3 0.6,-4.3l9.4 -16c1,-1.8 2.9,-2.8 4.9,-2.8 1,0 2,0.3 2.9,0.8 1.3,0.7 2.2,2 2.6,3.5 0.4,1.4 0.2,2.9 -0.6,4.2l-3.2 5.6 -6.2 10.4c-1.6,2.7 -5,3.6 -7.7,2.1l0 0zm16 9.3c-1.3,-0.7 -2.2,-1.9 -2.6,-3.4 -0.4,-1.5 -0.2,-3 0.6,-4.3l9.4 -16c0.7,-1.3 1.9,-2.2 3.4,-2.6 0.5,-0.1 1,-0.2 1.5,-0.2 1,0 1.9,0.2 2.8,0.8 1.3,0.7 2.2,1.9 2.6,3.4 0.4,1.5 0.2,3 -0.5,4.3l-9.4 16c-1.6,2.7 -5.1,3.6 -7.8,2zm19.3 4c-1.4,-0.8 -2.3,-2 -2.7,-3.5 -0.3,-1.5 -0.1,-3 0.6,-4.2l6.2 -10.6c1.6,-2.7 5.1,-3.6 7.8,-2 1.3,0.7 2.2,2 2.6,3.4 0.4,1.5 0.2,3 -0.6,4.3l-6.2 10.6c-1.6,2.7 -5.1,3.6 -7.7,2zm77.9 -43.8c-0.9,1.5 -2.3,2.6 -4.1,3 -1.8,0.5 -3.6,0.2 -5.1,-0.7l-17 -10.1c-1.8,-1 -4,-0.4 -5,1.3 -1,1.7 -0.4,3.9 1.3,5l15.4 9.1c0,0 0,0 0.1,0 1.5,0.9 2.6,2.4 3,4.2 0.5,1.7 0.2,3.5 -0.7,5.1 -0.9,1.5 -2.4,2.6 -4.1,3 -1.8,0.5 -3.6,0.2 -5.1,-0.7l-17 -10c-1.7,-1 -3.9,-0.5 -4.9,1.2 -1.1,1.8 -0.5,4 1.2,5l14.4 8.5c0.1,0.1 0.1,0.1 0.1,0.1 1.6,0.9 2.6,2.4 3.1,4.1 0.4,1.8 0.2,3.6 -0.7,5.1 -1.9,3.2 -6.1,4.3 -9.3,2.4l-14.5 -8.6c-1.7,-1.1 -3.9,-0.5 -5,1.2 -1,1.7 -0.4,4 1.3,5l7 4.1 0 0c1.5,0.9 2.6,2.4 3,4.1 0.5,1.8 0.2,3.6 -0.7,5.1 -1.9,3.2 -6,4.3 -9.2,2.4l-10 -5.9 4.8 -8.1c1.7,-3 2.2,-6.4 1.3,-9.8 -0.8,-3.3 -2.9,-6.1 -5.9,-7.9 -3.2,-1.8 -6.8,-2.2 -10.1,-1.2 0,-0.1 0,-0.2 -0.1,-0.3 -0.8,-3.4 -3,-6.2 -5.9,-7.9 -3,-1.7 -6.5,-2.2 -9.8,-1.3 -0.1,0 -0.2,0 -0.3,0 0,0 0,-0.1 0,-0.2 -0.9,-3.3 -3,-6.1 -6,-7.9 -3.1,-1.8 -6.8,-2.2 -10,-1.2 0,-0.1 -0.1,-0.2 -0.1,-0.3 -0.8,-3.3 -3,-6.1 -5.9,-7.9 -6.2,-3.5 -14.1,-1.5 -17.7,4.7l-2.9 4.8c-0.5,-1.5 -1,-3.1 -1.5,-4.6 -1.3,-4.5 -2.8,-9.2 -5.8,-12.4l-0.2 -0.2 -7.8 -5.6 21.5 -45.8c2.1,0.6 4,1 5.8,1.3 7.2,1 13.2,0.3 18.5,-0.3 6,-0.7 10.6,-1.3 15.1,0.8l-24.6 14.5c-3.1,1.8 -5.1,4.7 -5.7,8.3 -0.6,3.5 0.3,7 2.7,9.8 5.8,6.8 15.6,8.4 23.4,3.9l16.2 -9.6c13.9,16.3 29.3,19.9 43.5,19.9 2.3,0 4.5,-0.1 6.6,-0.3l21.1 12.5c1.5,0.9 2.6,2.4 3,4.2 0.5,1.7 0.2,3.5 -0.7,5.1l0 0zm1.5 -15.4c0,0 -0.1,-0.1 -0.1,-0.1l-22.1 -13.1c-0.6,-0.3 -1.3,-0.5 -2.1,-0.5 -15.6,1.2 -32.2,-0.3 -47,-19.2 -1.1,-1.5 -3.1,-1.8 -4.7,-0.9l-18.9 11.1c-4.7,2.8 -10.7,1.8 -14.2,-2.4 -1,-1.1 -1.3,-2.3 -1.1,-3.8 0.3,-1.5 1,-2.5 2.3,-3.3l36.4 -21.4c6.4,-3.8 18.4,-2.2 28.9,-0.8 7.3,0.9 14.1,1.8 19.7,1.2 5.4,-0.5 10.5,-2 15.4,-3.7l23.5 50c-4.1,3.1 -9.3,5.4 -16,6.9l0 0zm24.9 -5.2l-1.1 -2.3c0,0 0,0 0,-0.1l-27.4 -58 16.3 -7.7 28.5 60.5 -16.3 7.6zm-183.1 -11.5c0,1.9 -1.6,3.6 -3.6,3.6 -2,0 -3.6,-1.7 -3.6,-3.6 0,-2 1.6,-3.7 3.6,-3.7 2,0 3.6,1.7 3.6,3.7zm183.6 0c0,-2 1.6,-3.7 3.6,-3.7 2,0 3.6,1.7 3.6,3.7 0,1.9 -1.6,3.6 -3.6,3.6 -2,0 -3.6,-1.7 -3.6,-3.6z"/>
   <path class="fil1" d="M199.1 55.6c0,2.2 -1.5,5.3 -4.4,9.2 -3.3,4.5 -5.3,7.5 -5.8,8.9 -5.7,-1.9 -11.1,-2.8 -16.2,-2.8 -3.2,0 -6.6,0.2 -10,0.6 -4.2,-8.1 -6.3,-13.7 -6.3,-16.8 0,-1.8 1.5,-3 4.4,-3.6 2.5,-0.5 5.1,-0.8 7.8,-0.8l-1.1 10.1 1.4 0.3 3.7 -12c1.8,-0.5 5.4,-0.8 10.7,-0.8 3.1,0 6.2,0.6 9.4,1.8 4.3,1.5 6.4,3.5 6.4,5.9zm6.1 66.5c0,6.2 -1,11.6 -3,16.1 -3.3,7.3 -13.5,10.9 -30.4,10.9 -13.7,0 -23.5,-3.2 -29.4,-9.5 -2.5,-2.7 -3.8,-7.4 -3.8,-14.1 0,-10 1.9,-19.6 5.6,-28.8 4.4,-10.8 10.4,-18.1 18.2,-22 3.5,-0.4 6.8,-0.6 10.1,-0.6 5.1,0 10.6,1 16.4,3 5,4.7 9,11.6 12.1,20.8 2.8,8.4 4.2,16.5 4.2,24.2zm-24.5 -22.8c-1.1,-5 -3.7,-7.9 -7.9,-8.8l0.4 -2.7 -2.9 -0.4 -0.3 2.8c-3.1,0.1 -5.6,1 -7.5,2.7 -2,1.8 -3,4.2 -3,7.2 0,3.7 2.7,7 8,9.9l-1.8 14.6c-3.3,-0.8 -5.2,-3.4 -5.6,-7.7l-5.2 1c0.9,6.5 4.3,10.3 10.2,11.4l-0.5 4.5 2.8 0.4 0.6 -4.6c3.5,0 6.5,-1.1 8.8,-3.2 2.4,-2.1 3.6,-4.9 3.6,-8.4 0,-4.3 -3.2,-8.3 -9.5,-12l1.3 -10.8c2.1,0.6 3.4,2.3 3.8,5l4.7 -0.9zm-11.4 -4.4l-1.1 9.5c-2.2,-1.5 -3.2,-3 -3.2,-4.6 0,-3 1.4,-4.6 4.3,-4.9zm5.8 23.3c0,4 -2.2,6.3 -6.5,6.7l1.6 -13.3c3.3,1.9 4.9,4.1 4.9,6.6z"/>
  </g>
  <rect class="fil2" width="340.6" height="346.4"/>
 </g>
</svg>
