<?xml version="1.0" encoding="UTF-8"?>
<!DOCTYPE svg PUBLIC "-//W3C//DTD SVG 1.1//EN" "http://www.w3.org/Graphics/SVG/1.1/DTD/svg11.dtd">
<!-- Creator: CorelDRAW 2017 -->
<svg xmlns="http://www.w3.org/2000/svg" xml:space="preserve" width="275px" height="280px" version="1.1" style="shape-rendering:geometricPrecision; text-rendering:geometricPrecision; image-rendering:optimizeQuality; fill-rule:evenodd; clip-rule:evenodd"
viewBox="0 0 340.6 346.4"
 xmlns:xlink="http://www.w3.org/1999/xlink">
 <defs>
  <style type="text/css">
   <![CDATA[
    .fil1 {fill:none}
    .fil0 {fill:#EBECEC}
    .fil2 {fill:#EBECEC;fill-rule:nonzero}
   ]]>
  </style>
 </defs>
 <g id="Warstwa_x0020_1">
  <metadata id="CorelCorpID_0Corel-Layer"/>
  <path class="fil0" d="M288.8 255.4l-7.1 -4.4 -4.9 -11.9 1.9 -8.1c0.3,-1.3 0,-2.6 -1,-3.5l-10.6 -10.7c-0.9,-0.9 -2.2,-1.3 -3.5,-1l-8.2 2 -11.8 -4.9 -4.4 -7.1c-0.7,-1.2 -1.9,-1.8 -3.2,-1.8l-0.6 0 0 -15.9 14 10.3c0.7,0.5 1.4,0.7 2.2,0.7 1.2,0 2.3,-0.5 3.1,-1.5l12.7 -17.5c0.6,-0.8 0.9,-1.8 0.7,-2.8 -0.1,-1 -0.7,-1.9 -1.5,-2.5l-105.3 -76.8c-1.4,-1 -3.1,-1 -4.5,0l-22 16 0 -5.4c0,-2.1 -1.7,-3.7 -3.7,-3.7l-40.5 0c-2,0 -3.7,1.6 -3.7,3.7l0 16c0,2 1.7,3.7 3.7,3.7l2.3 0 0 16.3 -41.4 30.2c-0.8,0.6 -1.4,1.5 -1.5,2.5 -0.2,1 0.1,2 0.7,2.8l12.8 17.5c1.2,1.6 3.5,2 5.2,0.8l14 -10.3 0 99.7c0,2.1 1.7,3.7 3.8,3.7l93 0 0.6 1.5 -1.9 8.2c-0.3,1.2 0,2.6 1,3.5l10.6 10.6c0.9,0.9 2.2,1.3 3.5,1l8.2 -1.9 11.9 4.9 4.3 7.1c0.7,1.1 1.9,1.8 3.2,1.8l15.1 0c1.3,0 2.5,-0.7 3.2,-1.8l4.4 -7.1 11.8 -4.9 8.2 1.9c1.3,0.3 2.6,-0.1 3.5,-1l10.6 -10.6c1,-0.9 1.3,-2.3 1,-3.5l-1.9 -8.2 4.9 -11.8 7.2 -4.4c1.1,-0.7 1.7,-1.9 1.7,-3.2l0 -15c0,-1.3 -0.6,-2.5 -1.8,-3.2zm-194.4 -143l32.9 0 0 7.1 -1.7 1.3 -0.5 0 -31 -0.1 0.3 -8.3zm6 15.9l14.8 0 -14.8 10.8 0 -10.8zm-33.1 61.8l-8.3 -11.4 100 -73 100.1 73 -8.3 11.4 -89.5 -65.3c-0.7,-0.5 -1.5,-0.7 -2.3,-0.7 -0.7,0 -1.5,0.2 -2.2,0.7l-89.5 65.3zm23 -7.4l68.7 -50.2 68.8 50.1 0 21.4 -6.9 0c-1.3,0 -2.5,0.6 -3.2,1.7l-4.4 7.2 -11.8 4.9 -8.2 -2c-1.3,-0.3 -2.6,0.1 -3.5,1l-1.8 1.9 0 -8.6c0,-2 -1.7,-3.7 -3.8,-3.7l-50.3 0c-2.1,0 -3.8,1.7 -3.8,3.7l0 73.9 -39.8 0 0 -101.3zm47.4 101.3l0 -70.1 42.7 0 0 12.3 -1.2 1.3c-1,0.9 -1.3,2.2 -1,3.5l1.9 8.1 -4.9 11.9 -7.1 4.4c-1.1,0.7 -1.8,1.9 -1.8,3.2l0 15c0,1.3 0.7,2.5 1.8,3.2l7.1 4.4 1.2 2.8 -38.7 0zm145.4 -12.5l-6.4 3.9c-0.6,0.4 -1.2,1 -1.5,1.8l-5.8 14.1c-0.3,0.7 -0.4,1.5 -0.2,2.3l1.7 7.3 -7.6 7.6 -7.3 -1.7c-0.8,-0.2 -1.6,-0.1 -2.3,0.2l-14.2 5.8c-0.7,0.3 -1.3,0.8 -1.7,1.5l-3.9 6.4 -10.9 0 -3.9 -6.4c-0.4,-0.7 -1,-1.2 -1.8,-1.5l-14.1 -5.8c-0.7,-0.3 -1.5,-0.4 -2.3,-0.2l-7.3 1.7 -7.6 -7.6 1.7 -7.3c0.2,-0.8 0.1,-1.6 -0.2,-2.3l-5.8 -14.2c-0.3,-0.7 -0.9,-1.3 -1.5,-1.7l-6.4 -3.9 0 -10.8 6.4 -3.9c0.6,-0.5 1.2,-1.1 1.5,-1.8l5.8 -14.1c0.3,-0.8 0.4,-1.6 0.2,-2.4l-1.7 -7.2 7.6 -7.7 7.3 1.8c0.8,0.2 1.6,0.1 2.3,-0.2l14.1 -5.9c0.8,-0.3 1.4,-0.8 1.8,-1.5l3.9 -6.3 10.9 0 3.9 6.3c0.4,0.7 1,1.2 1.7,1.5l14.2 5.9c0.7,0.3 1.5,0.4 2.3,0.2l7.3 -1.8 7.6 7.7 -1.7 7.2c-0.2,0.8 -0.1,1.6 0.2,2.4l5.8 14.1c0.3,0.7 0.9,1.3 1.5,1.8l6.4 3.9 0 10.8 0 0zm-54.7 -40.1c-19.1,0 -34.6,15.6 -34.6,34.7 0,19.1 15.5,34.6 34.6,34.6 19.2,0 34.7,-15.5 34.7,-34.6 0,-19.1 -15.5,-34.7 -34.7,-34.7zm0 61.8c-14.9,0 -27.1,-12.2 -27.1,-27.1 0,-15 12.2,-27.2 27.1,-27.2 15,0 27.2,12.2 27.2,27.2 0,14.9 -12.2,27.1 -27.2,27.1z"/>
  <rect class="fil1" width="340.6" height="346.4"/>
  <path class="fil2" d="M298.9 25.6l2.1 3.1c-8.6,6.4 -18.1,16.4 -28.7,29.9 -10.6,13.5 -18.6,26.1 -24.2,37.8l-4.4 3.1c-3.7,2.5 -6.3,4.4 -7.6,5.7 -0.5,-1.9 -1.6,-5 -3.4,-9.3l-1.7 -3.9c-2.4,-5.7 -4.7,-9.8 -6.7,-12.5 -2.1,-2.7 -4.4,-4.5 -7,-5.4 4.3,-4.6 8.3,-6.9 11.9,-6.9 3.1,0 6.6,4.2 10.4,12.6l1.8 4.3c6.8,-11.5 15.6,-22.7 26.2,-33.5 10.7,-10.8 21.2,-19.2 31.3,-25z"/>
 </g>
</svg>
