<?xml version="1.0" encoding="UTF-8"?>
<!DOCTYPE svg PUBLIC "-//W3C//DTD SVG 1.1//EN" "http://www.w3.org/Graphics/SVG/1.1/DTD/svg11.dtd">
<!-- Creator: CorelDRAW 2017 -->
<svg xmlns="http://www.w3.org/2000/svg" xml:space="preserve" width="280px" height="268px" version="1.1" style="shape-rendering:geometricPrecision; text-rendering:geometricPrecision; image-rendering:optimizeQuality; fill-rule:evenodd; clip-rule:evenodd"
viewBox="0 0 1926.4 1848.1"
 xmlns:xlink="http://www.w3.org/1999/xlink"
 enable-background="new 0 0 512 512">
 <defs>
  <style type="text/css">
   <![CDATA[
    .fil0 {fill:#9B9B9B}
   ]]>
  </style>
 </defs>
 <g id="Warstwa_x0020_1">
  <metadata id="CorelCorpID_0Corel-Layer"/>
  <g id="project-section.svg">
   <path class="fil0" d="M527.8 1245.1c-49,0 -88.8,39.9 -88.8,88.9 0,48.9 39.8,88.8 88.8,88.8 49,0 88.9,-39.9 88.9,-88.8 0,-49 -39.9,-88.9 -88.9,-88.9zm0 117.5c-15.8,0 -28.6,-12.9 -28.6,-28.6 0,-15.9 12.8,-28.7 28.6,-28.7 15.8,0 28.7,12.8 28.7,28.7 0,15.7 -12.9,28.6 -28.7,28.6zm150.7 -745.9l193.9 0c16.6,0 30.1,-13.4 30.1,-30.1l0 -193.6c0,-16.6 -13.5,-30.1 -30.1,-30.1l-193.9 0c-16.6,0 -30.1,13.5 -30.1,30.1l0 193.7c0,16.6 13.5,30 30.1,30l0 0zm30.1 -193.6l133.7 0 0 133.5 -133.7 0 0 -133.5zm279 193.6l193.8 0c16.6,0 30.1,-13.4 30.1,-30.1l0 -193.6c0,-16.6 -13.5,-30.1 -30.1,-30.1l-193.8 0c-16.6,0 -30.1,13.5 -30.1,30.1l0 193.7c0,16.6 13.5,30 30.1,30l0 0zm30.1 -193.6l133.6 0 0 133.5 -133.6 0 0 -133.5 0 0zm-339.2 502.2l193.9 0c16.6,0 30.1,-13.4 30.1,-30.1l0 -193.5c0,-16.6 -13.5,-30.1 -30.1,-30.1l-193.9 0c-16.6,0 -30.1,13.5 -30.1,30.1l0 193.5c0,16.7 13.5,30.1 30.1,30.1l0 0zm30.1 -193.5l133.7 0 0 133.3 -133.7 0 0 -133.3zm279 193.5l193.8 0c16.6,0 30.1,-13.4 30.1,-30.1l0 -193.5c0,-16.6 -13.5,-30.1 -30.1,-30.1l-193.8 0c-16.6,0 -30.1,13.5 -30.1,30.1l0 193.5c0,16.7 13.5,30.1 30.1,30.1l0 0zm30.1 -193.5l133.6 0 0 133.3 -133.6 0 0 -133.3 0 0zm650.6 248.4l-193.9 0c-16.6,0 -30.1,13.4 -30.1,30.1l0 193.6c0,16.6 13.5,30.1 30.1,30.1l193.9 0c16.6,0 30.1,-13.5 30.1,-30.1l0 -193.6c0,-16.7 -13.5,-30.1 -30.1,-30.1l0 0zm-30.1 193.6l-133.7 0 0 -133.4 133.7 0 0 133.4zm258.1 614.2l-55.7 0 0 -865.5c0,-11.3 -6.3,-21.6 -16.4,-26.8l-462 -235.1 0 -444.8c0,-16.6 -13.5,-30.1 -30.1,-30.1l-56.5 0 0 -155.6c0,-16.6 -13.5,-30.1 -30.1,-30.1l-631.1 0c-16.6,0 -30.1,13.5 -30.1,30.1l0 155.5 -56.5 0c-16.6,0 -30.1,13.5 -30.1,30.1l0 336 -312.6 0c-16.7,0 -30.1,13.5 -30.1,30.1l0 673.2 -142.6 103.9c-6.5,4.7 -10.8,11.8 -12,19.7 -1.3,7.9 0.7,16 5.4,22.4l60.5 82.6c5.9,8 15,12.3 24.3,12.3 6.2,0 12.4,-1.9 17.7,-5.8l46.7 -34 0 331.8 -55.7 0c-16.6,0 -30.1,13.5 -30.1,30.1 0,16.7 13.5,30.1 30.1,30.1l1797 0c16.6,0 30.1,-13.4 30.1,-30.1 0,-16.6 -13.5,-30 -30.1,-30l0 0zm-391.8 -377.5l6.8 -9.4c4.7,-6.5 6.7,-14.6 5.5,-22.4 -1.2,-7.9 -5.5,-15 -12,-19.7l-0.3 -0.2 0 -9.7 133.6 0 0 133.3 -133.6 0 0 -71.9zm-59.5 -20.6l-24.9 33.9 -412.9 -301.2c-5.3,-3.8 -11.5,-5.8 -17.8,-5.8 -6.2,0 -12.4,1.9 -17.7,5.8l-126.2 92.1 -35.7 -26.1 179.6 -131 455.6 332.3zm-800.5 -1329.7l570.9 0 0 125.4 -570.9 0 0 -125.4zm-86.6 185.7l744.1 0 0 965.2 -294.8 -215c-10.6,-7.7 -24.9,-7.7 -35.5,0l-213.1 155.3 -200.7 -146.3 0 -759.2zm-60.2 619.2l-149.6 0 0 -133.3 149.6 0 0 133.3zm-282.5 -253.1l282.5 0 0 59.6 -179.7 0c-16.6,0 -30.1,13.5 -30.1,30.1l0 193.5c0,16.7 13.5,30.1 30.1,30.1l179.7 0 0 79.8 -282.5 206 0 -599.1zm-118.1 811.8l-24.9 -33.9 455.6 -332.2 455.7 332.2 -24.9 33.9 -413 -301.2c-10.6,-7.7 -25,-7.7 -35.5,0l-413 301.2zm342 364.2l0 -208 177.5 0 0 208 -177.5 0zm237.7 0l0 -238.1c0,-16.7 -13.5,-30.1 -30.2,-30.1l-237.6 0c-16.6,0 -30.1,13.4 -30.1,30.1l0 238.1 -163.7 0 0 -375.8 312.6 -228 312.7 228 0 375.8 -163.7 0zm223.9 0l0 -331.9 46.8 34.1c13.4,9.7 32.2,6.8 42,-6.6l60.4 -82.5c4.7,-6.5 6.6,-14.6 5.4,-22.5 -1.2,-7.9 -5.5,-14.9 -12,-19.6l-146.7 -107 92.8 -67.8 312.6 228 0 375.8 -401.3 0zm461.5 0l0 -331.9 46.8 34.1c5.3,3.9 11.5,5.8 17.7,5.8 6.2,0 12.4,-2 17.6,-5.8l0 22.3c0,16.6 13.5,30.1 30.1,30.1l193.9 0c16.6,0 30.1,-13.5 30.1,-30.1l0 -193.5c0,-16.7 -13.5,-30.1 -30.1,-30.1l-193.9 0c-15.3,0 -27.9,11.4 -29.8,26.2l-82.4 -60.1 0 -526.9 418.3 212.9 0 847 -418.3 0z"/>
  </g>
 </g>
</svg>
